PathFileType   4   (X/Y/Z)
DataRate	CameraRate	NumFrames	NumMarkers	Units	OrigDataRate	OrigDataStartFrame	OrigNumFrames
120.0	120.0	5	37	mm	120.0	73	116
Frame#	Time	midhip	hip_r	hip_l	knee_r	knee_l	ankle_r	ankle_l	midasis	asis_r	asis_l	psis_r	psis_l	epicondLat_r	epicondLat_l	epicondMed_r	epicondMed_l	malleolusLat_r	malleolusLat_l	malleolusMedv_r	malleolusMedv_l	neck	subclavicle_r	subclavicle_l	sternalnotch	xyphoidprocess	thighwand_r	thighwand_l	upperleg1_r	upperleg1_l	upperleg2_r	upperleg2_l	shankwand_r	shankwand_l	lowerleg1_r	lowerleg1_l	toe_r	toe_l
 	 	X1	Y1	Z1	X2	Y2	Z2	X3	Y3	Z3	X4	Y4	Z4	X5	Y5	Z5	X6	Y6	Z6	X7	Y7	Z7	X8	Y8	Z8	X9	Y9	Z9	X10	Y10	Z10	X11	Y11	Z11	X12	Y12	Z12	X13	Y13	Z13	X14	Y14	Z14	X15	Y15	Z15	X16	Y16	Z16	X17	Y17	Z17	X18	Y18	Z18	X19	Y19	Z19	X20	Y20	Z20	X21	Y21	Z21	X22	Y22	Z22	X23	Y23	Z23	X24	Y24	Z24	X25	Y25	Z25	X26	Y26	Z26	X27	Y27	Z27	X28	Y28	Z28	X29	Y29	Z29	X30	Y30	Z30	X31	Y31	Z31	X32	Y32	Z32	X33	Y33	Z33	X34	Y34	Z34	X35	Y35	Z35	X36	Y36	Z36	X37	Y37	Z37

	73	0.70833	1966.881	679.404	-184.766	1962.877	683.276	-118.256	1961.001	688.312	-243.970	1979.763	363.529	-106.340	2047.501	383.158	-215.295	1715.747	181.881	-110.619	2028.164	58.965	-211.739	2031.786	744.693	-179.795	2033.186	740.934	-85.978	2030.387	748.451	-273.612	1889.500	792.688	-160.033	1885.934	790.073	-214.913	1973.491	365.064	-56.255	2045.809	378.008	-265.000	1997.451	348.315	-147.378	2057.730	385.629	-166.305	1711.186	187.740	-77.952	2022.449	58.932	-245.762	1724.980	186.669	-136.159	2022.194	65.845	-183.689	1925.049	1134.153	-190.545	2011.879	1099.589	-129.752	2006.505	1097.942	-256.269	2004.950	1086.532	-195.257	2042.095	947.556	-194.266	1960.129	458.116	15.496	2148.251	518.699	-266.070	2004.408	515.371	-48.206	2068.248	558.107	-213.840	2020.130	432.428	-52.007	2082.379	472.683	-200.093	1782.549	257.670	-3.817	2119.161	151.209	-252.572	1839.212	276.685	-59.228	2063.234	212.100	-232.261	1734.831	85.275	-102.131	2121.236	36.475	-215.725
	74	0.71667	1976.873	681.837	-184.817	1972.952	686.246	-118.432	1970.611	690.323	-244.173	2000.640	367.148	-106.164	2050.061	383.256	-215.664	1740.601	180.704	-111.264	2028.392	59.063	-211.740	2041.690	747.123	-180.696	2043.436	744.082	-86.911	2039.944	750.164	-274.481	1899.687	795.295	-160.475	1895.746	792.421	-215.248	1994.215	368.516	-56.093	2047.666	378.025	-265.332	2019.799	352.697	-146.936	2059.902	384.896	-167.849	1735.584	186.811	-78.710	2022.416	59.052	-245.718	1750.112	185.406	-137.090	2022.381	66.038	-183.634	1935.853	1136.777	-190.671	2022.424	1102.038	-129.752	2017.377	1100.559	-256.193	2015.615	1088.948	-195.290	2052.599	950.045	-194.334	1977.539	460.744	16.016	2153.075	516.094	-267.849	2020.055	519.559	-47.220	2072.736	557.422	-214.674	2038.822	437.288	-51.177	2085.687	471.724	-201.343	1804.688	258.737	-4.714	2119.499	150.670	-253.219	1861.816	278.491	-59.962	2063.721	212.039	-232.997	1763.830	85.619	-100.532	2121.351	36.462	-215.882
	75	0.72500	1986.940	684.164	-184.835	1983.018	689.125	-118.612	1980.287	692.197	-244.374	2021.017	370.944	-106.144	2052.431	383.356	-215.910	1766.032	178.691	-111.813	2028.655	59.187	-211.688	2051.592	749.465	-181.576	2053.628	747.176	-87.836	2049.557	751.754	-275.316	1909.783	797.776	-160.915	1905.539	794.620	-215.593	2014.690	372.151	-56.057	2049.341	378.061	-265.533	2041.011	357.382	-146.824	2063.814	384.888	-167.565	1760.524	185.039	-79.384	2022.395	59.204	-245.615	1775.589	183.476	-137.869	2022.590	66.201	-183.510	1946.528	1139.328	-190.746	2033.093	1104.204	-129.900	2028.087	1102.926	-256.187	2026.209	1091.180	-195.331	2062.857	952.221	-194.616	1995.231	463.533	16.556	2157.701	513.390	-269.498	2035.617	523.795	-46.503	2080.054	556.869	-215.749	2057.237	442.243	-50.789	2091.145	470.730	-202.062	1827.031	259.308	-5.621	2119.764	150.221	-253.840	1884.485	280.147	-60.841	2064.177	211.935	-233.456	1793.543	85.484	-99.100	2121.490	36.471	-216.014
	76	0.73333	1996.986	686.350	-184.784	1993.064	691.878	-118.787	1990.007	693.913	-244.562	2040.865	374.828	-106.276	2054.649	383.459	-216.035	1792.008	175.890	-112.263	2028.933	59.341	-211.573	2061.482	751.687	-182.424	2063.759	750.171	-88.743	2059.206	753.202	-276.104	1919.777	800.104	-161.336	1915.320	796.651	-215.932	2034.890	375.906	-56.143	2050.883	378.120	-265.606	2061.547	362.080	-146.783	2065.243	385.184	-167.430	1785.994	182.441	-79.965	2022.392	59.394	-245.447	1801.446	180.807	-138.415	2022.829	66.339	-183.334	1957.173	1141.649	-190.814	2043.824	1106.154	-130.167	2038.543	1104.906	-256.155	2036.737	1093.216	-195.380	2072.868	954.064	-194.814	2013.194	466.470	17.106	2162.155	510.623	-270.985	2051.373	528.042	-46.114	2087.165	556.201	-216.717	2075.586	447.270	-50.682	2095.267	469.816	-202.709	1849.602	259.302	-6.501	2119.998	149.858	-254.370	1907.231	281.224	-61.617	2064.807	211.833	-233.627	1823.898	84.887	-97.857	2121.652	36.499	-216.115
	77	0.74167	2007.011	688.373	-184.678	2003.069	694.472	-118.937	1999.720	695.458	-244.717	2060.167	378.720	-106.549	2056.746	383.565	-216.046	1818.498	172.367	-112.626	2029.211	59.535	-211.386	2071.332	753.755	-183.228	2073.824	753.021	-89.622	2068.840	754.489	-276.834	1929.663	802.256	-161.714	1925.086	798.503	-216.245	2054.788	379.717	-56.346	2052.337	378.207	-265.562	2081.306	366.722	-146.799	2066.727	385.173	-167.564	1811.981	179.051	-80.453	2022.410	59.626	-245.209	1827.812	177.369	-138.795	2023.087	66.458	-183.103	1967.834	1143.739	-190.793	2054.395	1107.922	-130.357	2048.811	1106.536	-256.073	2047.209	1095.058	-195.440	2082.536	955.607	-194.742	2031.389	469.539	17.647	2166.460	507.831	-272.284	2067.280	532.275	-45.939	2093.153	555.387	-217.471	2093.788	452.271	-50.790	2098.886	468.809	-203.299	1872.432	258.644	-7.319	2120.241	149.581	-254.767	1930.037	281.624	-62.350	2065.513	211.778	-233.539	1854.835	83.856	-96.813	2121.833	36.541	-216.183
